<svg width="158" height="154" viewBox="0 0 158 154" fill="none" xmlns="http://www.w3.org/2000/svg">
<path d="M153.529 74.6696C161.204 95.9614 154.662 115.642 140.898 130.029C127.122 144.429 106.129 153.5 84.9997 153.5C63.8083 153.5 36.921 147.141 19.3458 134.408C10.5654 128.046 4.14704 120.122 1.88079 110.642C-0.38329 101.17 1.47567 90.0564 9.42439 77.2639C16.7189 65.5243 22.4291 55.1338 27.3952 46.0972C27.8812 45.2129 28.36 44.3416 28.8325 43.4833C34.1383 33.8448 38.6347 25.8616 43.4514 19.489C48.2613 13.1254 53.3747 8.39042 59.9015 5.23933C66.4317 2.0866 74.417 0.5 84.9997 0.5C95.568 0.5 104.148 2.4566 111.318 6.04098C118.488 9.62514 124.274 14.8503 129.235 21.4261C139.009 34.3812 145.548 52.5227 153.14 73.5893C153.269 73.9485 153.399 74.3086 153.529 74.6696Z" stroke="#C6C6C6"/>
</svg>
