<svg width="224" height="214" viewBox="0 0 224 214" fill="none" xmlns="http://www.w3.org/2000/svg">
<path d="M219.538 117.809C207.544 146.795 194.764 170.715 177.435 187.39C160.128 204.044 138.255 213.5 108 213.5C77.7172 213.5 50.8393 204.715 31.5411 188.4C12.252 172.093 0.5 148.235 0.5 118C0.5 87.8987 21.2949 68.5292 45.5242 52.6367C53.0591 47.6945 60.8911 43.1096 68.5174 38.6451C73.1607 35.927 77.7277 33.2534 82.105 30.5711C93.6382 23.5035 103.829 16.3879 110.388 8.31558C116.683 0.56766 128.023 -0.25744 141.379 4.00772C154.701 8.26195 169.829 17.5308 183.418 29.6237C197.005 41.715 209.019 56.5991 216.14 72.0532C223.261 87.5085 225.467 103.482 219.538 117.809Z" stroke="#C6C6C6"/>
</svg>
