<svg width="196" height="208" viewBox="0 0 196 208" fill="none" xmlns="http://www.w3.org/2000/svg">
<path d="M195.5 88C195.5 116.652 188.873 146.557 175.112 169.28C161.359 191.989 140.503 207.5 112 207.5C97.6829 207.5 86.1335 205.63 76.346 201.692C66.5638 197.757 58.515 191.744 51.212 183.42C36.5785 166.741 24.9702 140.826 8.45694 103.796C0.243316 85.3778 -0.94482 69.749 2.73268 56.6666C6.41095 43.5814 14.9747 32.9804 26.3811 24.6538C49.2113 7.98781 83.344 0.5 112 0.5C140.634 0.5 161.479 8.11635 175.174 22.8019C188.875 37.4941 195.5 59.3489 195.5 88Z" stroke="#C6C6C6"/>
</svg>
