<svg width="195" height="172" viewBox="0 0 195 172" fill="none" xmlns="http://www.w3.org/2000/svg">
<path d="M176.68 86.3841C190.858 98.199 195.435 109.35 193.795 119.396C192.148 129.483 184.207 138.647 172.903 146.4C150.306 161.9 114.657 171.5 91.0001 171.5C67.4487 171.5 52.0819 160.609 39.5845 144.444C33.3281 136.352 27.7962 126.942 22.3223 116.917C20.3065 113.225 18.297 109.446 16.2622 105.619C12.7794 99.07 9.22258 92.3816 5.4342 85.7519C-0.478989 75.4039 -0.299265 64.944 3.85183 55.037C8.01136 45.1097 16.163 35.7347 26.1892 27.639C36.2107 19.5471 48.0745 12.7582 59.6128 7.9934C71.1579 3.22578 82.3399 0.5 91.0001 0.5C99.642 0.5 105.714 2.87074 110.869 7.14277C116.05 11.4376 120.324 17.6687 125.329 25.4578C126.006 26.5105 126.695 27.5906 127.401 28.697C137.131 43.9473 150.047 64.1902 176.68 86.3841Z" stroke="#C6C6C6"/>
</svg>
