<svg width="218" height="214" viewBox="0 0 218 214" fill="none" xmlns="http://www.w3.org/2000/svg">
<path d="M207.571 104.257C225.667 134.499 215.164 166.372 192.408 187.698C169.641 209.034 134.716 219.698 104.185 207.536C73.4287 195.283 47.5043 183.669 29.2636 167.973C11.0565 152.305 0.5 132.567 0.5 104C0.5 75.3542 7.48284 49.4889 23.876 30.7905C40.2587 12.104 66.1062 0.5 104 0.5C122.957 0.5 136.594 3.18214 146.965 8.12326C157.324 13.0594 164.463 20.2686 170.393 29.3974C175.996 38.0215 180.51 48.3389 185.643 60.0735C185.953 60.7826 186.266 61.4968 186.581 62.2162C192.105 74.8278 198.429 88.9777 207.571 104.257Z" stroke="#FF6000"/>
</svg>
