<svg width="147" height="154" viewBox="0 0 147 154" fill="none" xmlns="http://www.w3.org/2000/svg">
<path d="M146.5 77C146.5 98.191 141.397 117.325 131.047 131.148C120.709 144.952 105.109 153.5 83.9996 153.5C73.4501 153.5 65.0679 151.083 58.01 146.883C50.9462 142.679 45.1813 136.673 39.8933 129.455C34.6323 122.273 29.8609 113.916 24.7515 104.967L24.6646 104.815C19.5271 95.8166 14.0495 86.2352 7.40973 76.714C0.869662 67.3358 -0.259837 57.9301 2.3505 49.0789C4.96761 40.2048 11.3584 31.8448 19.9366 24.6327C37.0992 10.2035 62.8619 0.5 83.9996 0.5C105.109 0.5 120.709 9.04774 131.047 22.8525C141.397 36.6752 146.5 55.809 146.5 77Z" stroke="#FF6000"/>
</svg>
