<svg width="185" height="172" viewBox="0 0 185 172" fill="none" xmlns="http://www.w3.org/2000/svg">
<path d="M176.561 86.2397C183.143 98.2851 185.174 109.611 183.53 119.819C181.886 130.028 176.561 139.166 168.347 146.822C151.907 162.145 123.922 171.5 91.0003 171.5C74.5616 171.5 62.2721 168.48 52.7674 163.395C43.2655 158.311 36.5116 151.145 31.1715 142.793C25.826 134.433 21.9039 124.897 18.0596 115.076C17.6361 113.994 17.2135 112.908 16.7901 111.82C13.3754 103.049 9.90508 94.1341 5.44145 85.7647C-4.42511 67.2647 1.33365 45.9949 17.423 29.2843C33.5093 12.5769 59.8758 0.5 91.0003 0.5C106.578 0.5 118.029 2.8371 126.862 7.06813C135.688 11.2954 141.937 17.4306 147.085 25.0914C152.242 32.7649 156.288 41.9558 160.712 52.2982C161.009 52.9904 161.306 53.6875 161.606 54.3897C165.782 64.1678 170.368 74.9038 176.561 86.2397Z" stroke="#FF6000"/>
</svg>
