<svg width="239" height="220" viewBox="0 0 239 220" fill="none" xmlns="http://www.w3.org/2000/svg">
<path d="M226.716 110.412C232.072 114.105 235.303 118.547 236.775 123.483C238.249 128.425 237.971 133.908 236.228 139.7C232.737 151.297 223.395 164.037 210.752 175.885C198.118 187.725 182.231 198.634 165.717 206.581C149.198 214.53 132.087 219.5 117 219.5C86.7084 219.5 51.6999 209.897 28.0886 191.419C16.2891 182.184 7.35527 170.749 3.25545 157.207C-0.842447 143.671 -0.126133 127.979 7.45958 110.196C22.7179 74.4265 35.001 47.0066 51.0331 28.515C67.0247 10.0702 86.7578 0.5 117 0.5C147.09 0.5 163.585 20.2795 178.042 44.0101C181.004 48.8723 183.888 53.9137 186.785 58.9793C190.933 66.2311 195.109 73.5324 199.584 80.4284C207.204 92.1692 215.762 102.857 226.716 110.412Z" stroke="#FF6000"/>
</svg>
