<svg width="176" height="172" viewBox="0 0 176 172" fill="none" xmlns="http://www.w3.org/2000/svg">
<path d="M169.032 85.824C166.469 92.6392 164.155 99.0945 161.978 105.17L161.977 105.174C159.799 111.252 157.757 116.949 155.736 122.252C151.691 132.862 147.738 141.867 142.956 149.163C138.179 156.452 132.583 162.025 125.255 165.782C117.923 169.54 108.82 171.5 97.0002 171.5C73.5752 171.5 60.9533 153.033 49.7512 132.882C48.3886 130.431 47.047 127.955 45.7098 125.487C41.5727 117.853 37.4776 110.296 32.9342 103.792C26.9181 95.1799 20.0566 88.3222 11.1502 85.523C6.87774 84.1803 4.10748 81.8813 2.58972 78.9185C1.06641 75.9449 0.770331 72.2352 1.58483 68.0167C3.21621 59.5673 9.27346 49.2426 18.3705 39.2109C36.5618 19.1507 66.6872 0.5 97.0002 0.5C127.435 0.5 150.513 8.36072 163.439 22.8948C176.338 37.3985 179.241 58.6831 169.032 85.824Z" stroke="#FF6000"/>
</svg>
