<svg width="226" height="198" viewBox="0 0 226 198" fill="none" xmlns="http://www.w3.org/2000/svg">
<path d="M214.561 93.7606C209.309 103.389 204.628 112.235 200.348 120.343C200.036 120.934 199.726 121.521 199.418 122.104C195.502 129.522 191.922 136.305 188.538 142.495C181.235 155.85 174.864 166.407 168.054 174.554C161.251 182.692 154.017 188.418 144.99 192.115C135.954 195.816 125.088 197.5 111 197.5C82.9466 197.5 64.7046 184.609 49.6449 165.194C42.1069 155.475 35.3721 144.128 28.6088 131.945C26.344 127.865 24.075 123.69 21.7719 119.451C17.2043 111.046 12.5023 102.393 7.43101 93.747C-0.125258 80.8643 -1.00458 68.64 2.77857 57.5363C6.56852 46.4126 15.056 36.3629 26.3233 27.8998C48.8629 10.9698 82.3806 0.5 111 0.5C139.699 0.5 176.088 4.75167 200.039 18.5582C212.002 25.4539 220.813 34.7042 224.062 46.9563C227.312 59.2117 225.025 74.5769 214.561 93.7606Z" stroke="#FF6000"/>
</svg>
