<svg width="142" height="154" viewBox="0 0 142 154" fill="none" xmlns="http://www.w3.org/2000/svg">
<path d="M140.019 78.867C139.726 79.9276 139.43 81.0104 139.128 82.1122C135.299 96.0989 130.627 113.164 122.269 127.118C113.269 142.144 100.035 153.5 79.0005 153.5C57.9697 153.5 41.599 140.15 29.075 123.821C17.7359 109.037 9.61648 91.8979 4.09386 80.2406C3.51846 79.026 2.97126 77.871 2.45153 76.7843C-0.208893 71.2215 0.514423 63.6989 3.87393 55.4543C7.22656 47.2265 13.17 38.3706 20.7935 30.2165C36.0541 13.8935 57.9312 0.5 79.0005 0.5C100.053 0.5 117.29 12.8757 128.285 28.9078C139.291 44.9539 143.967 64.5524 140.019 78.867Z" stroke="#FF6000"/>
</svg>
