<svg width="235" height="220" viewBox="0 0 235 220" fill="none" xmlns="http://www.w3.org/2000/svg">
<path d="M221.771 109.556C210.04 115.611 201.092 125.563 193.325 137.032C187.889 145.059 183.008 153.865 178.156 162.62C176.083 166.361 174.015 170.093 171.911 173.751C157.817 198.252 142.07 219.5 112 219.5C81.7372 219.5 50.9839 208.414 29.4895 189.19C8.00852 169.978 -4.21869 142.651 2.49009 110.101C9.22822 77.4081 21.5099 50.0043 39.6448 30.7806C57.768 11.5692 81.761 0.5 112 0.5C127.081 0.5 144.377 5.84082 161.132 14.2593C177.881 22.6747 194.051 34.1461 206.875 46.362C219.709 58.5884 229.144 71.5153 232.494 82.8295C234.167 88.4789 234.313 93.6914 232.647 98.2099C230.985 102.72 227.494 106.602 221.771 109.556Z" stroke="#FF6000"/>
</svg>
