<svg width="329" height="304" viewBox="0 0 329 304" fill="none" xmlns="http://www.w3.org/2000/svg">
<path d="M315.588 151.717C305.567 166.281 296.522 182.308 287.492 198.305C286.821 199.494 286.15 200.683 285.479 201.871C275.77 219.053 265.998 236.075 254.952 251.142C232.869 281.263 205.75 303.5 164 303.5C122.178 303.5 94.1902 288.443 71.7131 261.989C49.2017 235.494 32.2164 197.57 12.4588 151.802C-7.22899 106.196 -0.844749 68.4304 26.0997 42.0447C53.0897 15.6145 100.808 0.5 164 0.5C227.137 0.5 275.742 22.8348 303.193 52.8996C330.639 82.9595 336.925 120.703 315.588 151.717Z" stroke="black"/>
</svg>
