<svg width="366" height="366" viewBox="0 0 366 366" fill="none" xmlns="http://www.w3.org/2000/svg">
<path d="M179 364.5H178.989L178.979 364.5C102.572 367.746 58.0108 347.734 32.5208 314.704C7.00352 281.639 0.5 235.411 0.5 186C0.5 136.782 26.6256 101.787 62.0568 74.2604C90.2945 52.3224 124.387 35.168 155.81 19.3573C163.838 15.3175 171.693 11.3654 179.231 7.44363C197.548 -2.08615 220.537 -0.16553 244.119 9.27668C267.692 18.7151 291.777 35.6406 312.21 55.9794C332.643 76.3187 349.393 100.043 358.323 123.056C367.255 146.076 368.334 168.3 357.574 185.738C349.515 198.8 341.688 213.169 333.666 227.897C330.856 233.057 328.021 238.262 325.144 243.469C314.049 263.551 302.315 283.698 288.86 301.637C261.952 337.511 228.208 364.5 179 364.5Z" stroke="black"/>
</svg>
