<svg width="16" height="16" viewBox="0 0 16 16" fill="none" xmlns="http://www.w3.org/2000/svg">
<path d="M12.8833 6.31213C12.8833 6.31213 12.5213 10.8021 12.3113 12.6935C12.2113 13.5968 11.6533 14.1261 10.7393 14.1428C8.99993 14.1741 7.2586 14.1761 5.51993 14.1395C4.6406 14.1215 4.09193 13.5855 3.99393 12.6981C3.7826 10.7901 3.4226 6.31213 3.4226 6.31213" stroke="#5B5D66" stroke-width="1.5" stroke-linecap="round" stroke-linejoin="round"/>
<path d="M13.8055 4.15981H2.50013" stroke="#5B5D66" stroke-width="1.5" stroke-linecap="round" stroke-linejoin="round"/>
<path d="M11.6271 4.1598C11.1037 4.1598 10.6531 3.7898 10.5504 3.27713L10.3884 2.46647C10.2884 2.09247 9.94973 1.8338 9.56373 1.8338H6.74173C6.35573 1.8338 6.01706 2.09247 5.91706 2.46647L5.75506 3.27713C5.6524 3.7898 5.20173 4.1598 4.6784 4.1598" stroke="#5B5D66" stroke-width="1.5" stroke-linecap="round" stroke-linejoin="round"/>
</svg>
