<svg width="18" height="18" viewBox="0 0 18 18" fill="none" xmlns="http://www.w3.org/2000/svg">
<path fill-rule="evenodd" clip-rule="evenodd" d="M10.0874 3.66016H12.3899C15.1574 3.66016 16.5074 5.13766 16.4999 8.16766V11.8202C16.4999 14.7152 14.7149 16.5002 11.8124 16.5002H6.17992C3.29242 16.5002 1.49992 14.7152 1.49992 11.8127V6.18016C1.49992 3.07516 2.87992 1.50016 5.60242 1.50016H6.78742C7.48567 1.49266 8.13742 1.81516 8.56492 2.36266L9.22492 3.24016C9.43492 3.50266 9.74992 3.66016 10.0874 3.66016ZM5.52742 11.4677H12.4724C12.7799 11.4677 13.0274 11.2127 13.0274 10.9052C13.0274 10.5902 12.7799 10.3427 12.4724 10.3427H5.52742C5.21242 10.3427 4.96492 10.5902 4.96492 10.9052C4.96492 11.2127 5.21242 11.4677 5.52742 11.4677Z" fill="#151824"/>
</svg>
