<svg width="48" height="25" viewBox="0 0 48 25" fill="none" xmlns="http://www.w3.org/2000/svg">
<path d="M32.8482 12.814V16.559" stroke="#75777E" stroke-width="1.5" stroke-linecap="round" stroke-linejoin="round"/>
<path d="M34.759 14.6868H30.9379" stroke="#A6A7AC" stroke-width="1.5" stroke-linecap="round" stroke-linejoin="round"/>
<path d="M39.3661 12.9281H39.2591" stroke="#75777E" stroke-width="1.5" stroke-linecap="round" stroke-linejoin="round"/>
<path d="M41.1796 16.5025H41.0726" stroke="#A6A7AC" stroke-width="1.5" stroke-linecap="round" stroke-linejoin="round"/>
<path opacity="0.4" d="M32.0722 2.5C32.0722 3.24048 32.6846 3.84076 33.4402 3.84076H34.4967C35.6623 3.84492 36.6064 4.77026 36.6117 5.91266V6.58771" stroke="#75777E" stroke-width="1.5" stroke-linecap="round" stroke-linejoin="round"/>
<path fill-rule="evenodd" clip-rule="evenodd" d="M40.4283 22.4625C37.4231 22.5134 34.473 22.5113 31.5727 22.4625C28.3535 22.4625 26 20.1663 26 17.0112V12.3616C26 9.20651 28.3535 6.91029 31.5727 6.91029C34.4889 6.86044 37.4411 6.86148 40.4283 6.91029C43.6476 6.91029 46 9.20755 46 12.3616V17.0112C46 20.1663 43.6476 22.4625 40.4283 22.4625Z" stroke="#75777E" stroke-width="1.5" stroke-linecap="round" stroke-linejoin="round"/>
</svg>
