<svg width="48" height="25" viewBox="0 0 48 25" fill="none" xmlns="http://www.w3.org/2000/svg">
<path fill-rule="evenodd" clip-rule="evenodd" d="M27 7C27 4.37479 27.0281 3.5 30.5 3.5C33.9719 3.5 34 4.37479 34 7C34 9.62521 34.0111 10.5 30.5 10.5C26.9889 10.5 27 9.62521 27 7Z" stroke="#75777E" stroke-width="1.5" stroke-linecap="round" stroke-linejoin="round"/>
<path opacity="0.4" fill-rule="evenodd" clip-rule="evenodd" d="M38 7C38 4.37479 38.0281 3.5 41.5 3.5C44.9719 3.5 45 4.37479 45 7C45 9.62521 45.0111 10.5 41.5 10.5C37.9889 10.5 38 9.62521 38 7Z" stroke="#75777E" stroke-width="1.5" stroke-linecap="round" stroke-linejoin="round"/>
<path fill-rule="evenodd" clip-rule="evenodd" d="M27 18C27 15.3748 27.0281 14.5 30.5 14.5C33.9719 14.5 34 15.3748 34 18C34 20.6252 34.0111 21.5 30.5 21.5C26.9889 21.5 27 20.6252 27 18Z" stroke="#75777E" stroke-width="1.5" stroke-linecap="round" stroke-linejoin="round"/>
<path fill-rule="evenodd" clip-rule="evenodd" d="M38 18C38 15.3748 38.0281 14.5 41.5 14.5C44.9719 14.5 45 15.3748 45 18C45 20.6252 45.0111 21.5 41.5 21.5C37.9889 21.5 38 20.6252 38 18Z" stroke="#75777E" stroke-width="1.5" stroke-linecap="round" stroke-linejoin="round"/>
</svg>
