<svg width="48" height="25" viewBox="0 0 48 25" fill="none" xmlns="http://www.w3.org/2000/svg">
<path d="M28.7943 7.55575C28.7943 6.30675 29.8073 5.29375 31.0553 5.29375H32.0843C32.6803 5.29375 33.2533 5.05775 33.6773 4.63675L34.3963 3.91675C35.2773 3.03175 36.7093 3.02775 37.5943 3.90875L37.6033 3.91675L38.3233 4.63675C38.7463 5.05775 39.3193 5.29375 39.9163 5.29375H40.9443C42.1933 5.29375 43.2063 6.30675 43.2063 7.55575V8.58275C43.2063 9.18075 43.4423 9.75275 43.8633 10.1767L44.5833 10.8967C45.4683 11.7777 45.4733 13.2087 44.5923 14.0947L44.5833 14.1037L43.8633 14.8237C43.4423 15.2457 43.2063 15.8197 43.2063 16.4157V17.4447C43.2063 18.6937 42.1933 19.7057 40.9443 19.7057H39.9163C39.3193 19.7057 38.7463 19.9427 38.3233 20.3637L37.6033 21.0827C36.7233 21.9687 35.2913 21.9727 34.4053 21.0917C34.4023 21.0887 34.3993 21.0857 34.3963 21.0827L33.6773 20.3637C33.2533 19.9427 32.6803 19.7057 32.0843 19.7057H31.0553C29.8073 19.7057 28.7943 18.6937 28.7943 17.4447V16.4157C28.7943 15.8197 28.5573 15.2457 28.1363 14.8237L27.4173 14.1037C26.5313 13.2227 26.5273 11.7907 27.4083 10.9057L27.4173 10.8967L28.1363 10.1767C28.5573 9.75275 28.7943 9.18075 28.7943 8.58275V7.55575" stroke="#75777E" stroke-width="1.5" stroke-linecap="round" stroke-linejoin="round"/>
<path opacity="0.4" d="M33.43 15.0694L38.57 9.92944" stroke="#75777E" stroke-width="1.5" stroke-linecap="round" stroke-linejoin="round"/>
<path opacity="0.4" d="M38.5667 15.8224C38.3667 15.8224 38.1767 15.7424 38.0367 15.6024C37.9667 15.5324 37.9167 15.4424 37.8767 15.3524C37.8367 15.2624 37.8167 15.1734 37.8167 15.0724C37.8167 14.9724 37.8367 14.8724 37.8767 14.7824C37.9167 14.6924 37.9667 14.6124 38.0367 14.5424C38.3167 14.2624 38.8167 14.2624 39.0967 14.5424C39.1667 14.6124 39.2267 14.6924 39.2667 14.7824C39.2967 14.8724 39.3167 14.9724 39.3167 15.0724C39.3167 15.1734 39.2967 15.2624 39.2667 15.3524C39.2267 15.4424 39.1667 15.5324 39.0967 15.6024C38.9567 15.7424 38.7667 15.8224 38.5667 15.8224Z" fill="#130F26"/>
<path opacity="0.4" d="M33.4266 10.6828C33.3266 10.6828 33.2366 10.6618 33.1466 10.6218C33.0566 10.5818 32.9666 10.5328 32.8966 10.4628C32.8266 10.3828 32.7766 10.3028 32.7366 10.2128C32.6966 10.1218 32.6766 10.0328 32.6766 9.93277C32.6766 9.83177 32.6966 9.73277 32.7366 9.64277C32.7766 9.55277 32.8266 9.46277 32.8966 9.40277C33.1866 9.12177 33.6766 9.12177 33.9566 9.40277C34.0966 9.54177 34.1766 9.73277 34.1766 9.93277C34.1766 10.0328 34.1666 10.1218 34.1266 10.2128C34.0866 10.3028 34.0266 10.3828 33.9566 10.4628C33.8866 10.5328 33.8066 10.5818 33.7166 10.6218C33.6266 10.6618 33.5266 10.6828 33.4266 10.6828Z" fill="#130F26"/>
</svg>
