<svg width="48" height="25" viewBox="0 0 48 25" fill="none" xmlns="http://www.w3.org/2000/svg">
<path fill-rule="evenodd" clip-rule="evenodd" d="M40.3027 3.24976H31.6507C28.6387 3.24976 26.7497 5.38376 26.7497 8.40376V16.5498C26.7497 19.5698 28.6307 21.7038 31.6507 21.7038H40.2977C43.3227 21.7038 45.2027 19.5698 45.2027 16.5498V8.40376C45.2067 5.38376 43.3257 3.24976 40.3027 3.24976Z" stroke="#75777E" stroke-width="1.5" stroke-linecap="round" stroke-linejoin="round"/>
<path opacity="0.4" fill-rule="evenodd" clip-rule="evenodd" d="M34.7031 9.28496C34.7031 10.305 33.8771 11.131 32.8571 11.131C31.8381 11.131 31.0111 10.305 31.0111 9.28496C31.0111 8.26496 31.8381 7.43896 32.8571 7.43896C33.8761 7.43996 34.7021 8.26596 34.7031 9.28496Z" stroke="#75777E" stroke-width="1.5" stroke-linecap="round" stroke-linejoin="round"/>
<path opacity="0.4" d="M45.207 15.4509C44.284 14.5009 42.509 12.5819 40.579 12.5819C38.648 12.5819 37.535 16.8149 35.678 16.8149C33.821 16.8149 32.134 14.9009 30.646 16.1279C29.158 17.3539 27.75 19.8609 27.75 19.8609" stroke="#75777E" stroke-width="1.5" stroke-linecap="round" stroke-linejoin="round"/>
</svg>
