<svg width="48" height="25" viewBox="0 0 48 25" fill="none" xmlns="http://www.w3.org/2000/svg">
<path fill-rule="evenodd" clip-rule="evenodd" d="M44.8066 8.12361L44.1842 7.04352C43.6576 6.1296 42.4907 5.81432 41.5755 6.33872V6.33872C41.1399 6.59534 40.6201 6.66815 40.1307 6.54109C39.6413 6.41402 39.2226 6.09752 38.9668 5.66137C38.8023 5.38415 38.7139 5.06839 38.7105 4.74604V4.74604C38.7254 4.22922 38.5304 3.7284 38.17 3.35767C37.8096 2.98694 37.3145 2.77786 36.7975 2.77808H35.5435C35.037 2.77807 34.5513 2.97991 34.194 3.33895C33.8367 3.69798 33.6372 4.18459 33.6396 4.69112V4.69112C33.6246 5.73693 32.7725 6.57681 31.7266 6.5767C31.4042 6.57336 31.0884 6.48494 30.8112 6.32041V6.32041C29.896 5.79601 28.7291 6.11129 28.2025 7.02522L27.5343 8.12361C27.0084 9.03639 27.3194 10.2026 28.23 10.7323V10.7323C28.8219 11.074 29.1865 11.7056 29.1865 12.3891C29.1865 13.0725 28.8219 13.7041 28.23 14.0458V14.0458C27.3205 14.5719 27.0092 15.7353 27.5343 16.6454V16.6454L28.1659 17.7346C28.4126 18.1798 28.8266 18.5083 29.3162 18.6474C29.8058 18.7866 30.3306 18.7249 30.7746 18.476V18.476C31.2111 18.2213 31.7312 18.1516 32.2193 18.2822C32.7075 18.4128 33.1232 18.733 33.3741 19.1717C33.5387 19.4489 33.6271 19.7646 33.6304 20.087V20.087C33.6304 21.1435 34.4869 22 35.5435 22H36.7975C37.8505 22.0001 38.7055 21.1491 38.7105 20.0962V20.0962C38.7081 19.588 38.9089 19.1 39.2681 18.7407C39.6274 18.3814 40.1155 18.1807 40.6236 18.1831C40.9452 18.1917 41.2596 18.2798 41.5389 18.4394V18.4394C42.4517 18.9653 43.6179 18.6544 44.1476 17.7438V17.7438L44.8066 16.6454C45.0617 16.2075 45.1318 15.686 45.0012 15.1964C44.8706 14.7067 44.5502 14.2894 44.111 14.0367V14.0367C43.6717 13.784 43.3514 13.3666 43.2208 12.8769C43.0902 12.3873 43.1602 11.8658 43.4153 11.428C43.5812 11.1383 43.8214 10.8982 44.111 10.7323V10.7323C45.0161 10.2029 45.3264 9.04349 44.8066 8.13277V8.13277V8.12361Z" stroke="#75777E" stroke-width="1.5" stroke-linecap="round" stroke-linejoin="round"/>
<circle opacity="0.4" cx="36.1751" cy="12.3891" r="2.63616" stroke="#75777E" stroke-width="1.5" stroke-linecap="round" stroke-linejoin="round"/>
</svg>
