<svg width="48" height="25" viewBox="0 0 48 25" fill="none" xmlns="http://www.w3.org/2000/svg">
<path fill-rule="evenodd" clip-rule="evenodd" d="M40.5137 21.9999H32.1659C29.0995 21.9999 26.7471 20.8924 27.4153 16.4347L28.1934 10.3935C28.6053 8.16925 30.024 7.31799 31.2689 7.31799H41.4474C42.7105 7.31799 44.0469 8.23332 44.5229 10.3935L45.3009 16.4347C45.8684 20.3889 43.5801 21.9999 40.5137 21.9999Z" stroke="#75777E" stroke-width="1.5" stroke-linecap="round" stroke-linejoin="round"/>
<path opacity="0.4" d="M40.651 7.09836C40.651 4.71229 38.7167 2.77799 36.3307 2.77799V2.77799C35.1817 2.77312 34.0781 3.22615 33.2639 4.03691C32.4497 4.84766 31.992 5.94935 31.992 7.09836V7.09836" stroke="#75777E" stroke-width="1.5" stroke-linecap="round" stroke-linejoin="round"/>
<path d="M39.2963 11.6018H39.2506" stroke="#75777E" stroke-width="1.5" stroke-linecap="round" stroke-linejoin="round"/>
<path d="M33.4657 11.6018H33.4199" stroke="#75777E" stroke-width="1.5" stroke-linecap="round" stroke-linejoin="round"/>
</svg>
