<svg width="48" height="25" viewBox="0 0 48 25" fill="none" xmlns="http://www.w3.org/2000/svg">
<path fill-rule="evenodd" clip-rule="evenodd" d="M33.5915 15.7068C37.2805 15.7068 40.4335 16.2658 40.4335 18.4988C40.4335 20.7318 37.3015 21.3068 33.5915 21.3068C29.9015 21.3068 26.7495 20.7528 26.7495 18.5188C26.7495 16.2848 29.8805 15.7068 33.5915 15.7068Z" stroke="#75777E" stroke-width="1.5" stroke-linecap="round" stroke-linejoin="round"/>
<path opacity="0.4" fill-rule="evenodd" clip-rule="evenodd" d="M33.5915 12.5198C31.1695 12.5198 29.2055 10.5568 29.2055 8.13476C29.2055 5.71276 31.1695 3.74976 33.5915 3.74976C36.0125 3.74976 37.9765 5.71276 37.9765 8.13476C37.9855 10.5478 36.0355 12.5108 33.6225 12.5198H33.5915Z" stroke="#75777E" stroke-width="1.5" stroke-linecap="round" stroke-linejoin="round"/>
<path opacity="0.4" d="M40.4831 11.3815C42.0841 11.1565 43.3171 9.78253 43.3201 8.11953C43.3201 6.48053 42.1251 5.12053 40.5581 4.86353" stroke="#75777E" stroke-width="1.5" stroke-linecap="round" stroke-linejoin="round"/>
<path d="M42.5954 15.2322C44.1464 15.4632 45.2294 16.0072 45.2294 17.1272C45.2294 17.8982 44.7194 18.3982 43.8954 18.7112" stroke="#75777E" stroke-width="1.5" stroke-linecap="round" stroke-linejoin="round"/>
</svg>
